<svg width="15" height="15" viewBox="0 0 15 15" fill="none" xmlns="http://www.w3.org/2000/svg">
<path d="M2.18311 14.1038H1.12026L1.87183 13.3522C2.27706 12.947 2.53012 12.4199 2.59815 11.8481C1.5407 11.1542 0.767443 10.2412 0.353519 9.19415C-0.0601114 8.14791 -0.11209 6.99618 0.203217 5.86345C0.58154 4.50427 1.46888 3.26544 2.70173 2.3751C4.04144 1.40764 5.70923 0.89624 7.52483 0.89624C9.81199 0.89624 11.7398 1.55336 13.0998 2.79651C14.325 3.91648 14.9998 5.42716 14.9998 7.05031C14.9998 7.83888 14.8392 8.60618 14.5225 9.33089C14.1948 10.0808 13.715 10.7486 13.0963 11.3155C11.7345 12.5636 9.80788 13.2233 7.5248 13.2233C6.67726 13.2233 5.79285 13.1101 5.00325 12.9025C4.25585 13.6692 3.24306 14.1038 2.18311 14.1038ZM7.52483 1.77674C3.88427 1.77674 1.65041 3.94786 1.05146 6.09957C0.485477 8.13294 1.31981 10.0543 3.28333 11.2392L3.50272 11.3716L3.49597 11.6277C3.48259 12.1347 3.36173 12.6231 3.14539 13.0645C3.67219 12.8862 4.15022 12.5631 4.52455 12.1209L4.71068 11.9009L4.98672 11.9835C5.76136 12.2152 6.66273 12.3428 7.52483 12.3428C12.0557 12.3428 14.1193 9.59933 14.1193 7.05031C14.1193 5.67743 13.5462 4.39753 12.5057 3.44641C11.3108 2.35412 9.5884 1.77674 7.52483 1.77674Z" fill="#5E6373"/>
</svg>
