<svg width="17" height="11" viewBox="0 0 17 11" fill="none" xmlns="http://www.w3.org/2000/svg">
<path d="M16.9373 5.29876C16.8034 5.10395 13.5861 0.541504 8.5002 0.541504C4.13608 0.541504 0.247271 5.07775 0.0836434 5.27113C-0.0275556 5.40288 -0.0275556 5.59626 0.0836434 5.72871C0.247271 5.92209 4.13608 10.4583 8.5002 10.4583C12.8643 10.4583 16.7531 5.92209 16.9167 5.72871C17.0195 5.60689 17.0287 5.43051 16.9373 5.29876ZM8.5002 9.75001C5.0017 9.75001 1.67529 6.4137 0.83026 5.49994C1.6739 4.58548 4.99675 1.24987 8.5002 1.24987C12.5937 1.24987 15.4831 4.58123 16.1886 5.48081C15.374 6.36552 12.0285 9.75001 8.5002 9.75001Z" fill="#5E6373"/>
<path d="M8.50012 2.66675C6.93752 2.66675 5.66675 3.93752 5.66675 5.50011C5.66675 7.06271 6.93752 8.33348 8.50012 8.33348C10.0627 8.33348 11.3335 7.06271 11.3335 5.50011C11.3335 3.93752 10.0627 2.66675 8.50012 2.66675ZM8.50012 7.62518C7.32852 7.62518 6.37508 6.67174 6.37508 5.50015C6.37508 4.32856 7.32852 3.37511 8.50012 3.37511C9.67171 3.37511 10.6252 4.32856 10.6252 5.50015C10.6252 6.67174 9.67171 7.62518 8.50012 7.62518Z" fill="#5E6373"/>
</svg>
