<?xml version="1.0" standalone="no"?>
<!DOCTYPE svg PUBLIC "-//W3C//DTD SVG 20010904//EN"
 "http://www.w3.org/TR/2001/REC-SVG-20010904/DTD/svg10.dtd">
<svg version="1.0" xmlns="http://www.w3.org/2000/svg"
 width="32.000000pt" height="32.000000pt" viewBox="0 0 32.000000 32.000000"
 preserveAspectRatio="xMidYMid meet">

<g transform="translate(0.000000,32.000000) scale(0.100000,-0.100000)"
fill="#000000" stroke="none">
<path d="M95 306 c-101 -44 -125 -178 -46 -257 65 -65 157 -65 222 0 124 124
-15 327 -176 257z m42 -117 c18 -94 28 -94 46 0 10 54 14 61 35 61 22 0 23 -3
17 -42 -4 -24 -16 -64 -27 -91 -17 -40 -25 -47 -48 -47 -23 0 -31 7 -48 47
-11 27 -23 67 -27 91 -6 39 -5 42 17 42 21 0 25 -7 35 -61z"/>
</g>
</svg>
