<svg width="32" height="32" viewBox="0 0 32 32" fill="none" xmlns="http://www.w3.org/2000/svg">
<circle cx="16" cy="16" r="16" fill="#0B1E3E"/>
<path d="M21.4038 6.80469C19.7079 6.80469 19.151 6.93135 19.1004 7.94469C18.822 13.214 17.936 17.3434 15.987 20.8647C14.0632 17.3434 13.1773 13.214 12.8989 7.94469C12.8482 6.93135 12.2914 6.80469 10.5954 6.80469C8.89949 6.80469 8.29199 6.93135 8.29199 7.94469C8.29199 12.7327 10.4182 20.0794 13.3292 24.3354C13.8607 25.1207 14.4176 25.1967 15.987 25.1967C17.5817 25.1967 18.1385 25.0954 18.6701 24.3354C21.581 20.0794 23.7073 12.7327 23.7073 7.94469C23.7073 6.93135 23.0998 6.80469 21.4038 6.80469Z" fill="white"/>
</svg>
