<svg width="189" height="25" viewBox="0 0 189 25" fill="none" xmlns="http://www.w3.org/2000/svg">
<path d="M108.995 22.5394C107.835 22.5394 106.846 22.4123 106.03 22.1579C105.213 21.9248 104.429 21.6387 103.677 21.2996V17.6755C104.171 17.9934 104.687 18.3007 105.224 18.5974C105.782 18.8729 106.373 19.0955 106.997 19.265C107.641 19.4346 108.329 19.5193 109.059 19.5193C109.919 19.5193 110.553 19.3604 110.961 19.0425C111.391 18.7034 111.606 18.3007 111.606 17.8344C111.606 17.3894 111.445 17.0503 111.122 16.8172C110.8 16.5628 110.381 16.3509 109.865 16.1813C109.349 16.0118 108.802 15.8422 108.221 15.6727C107.684 15.5455 107.136 15.376 106.578 15.1641C106.04 14.9521 105.546 14.666 105.095 14.3057C104.644 13.9454 104.278 13.4898 103.999 12.9387C103.741 12.3665 103.612 11.6777 103.612 10.8724C103.612 9.91864 103.806 9.11328 104.192 8.45628C104.579 7.79928 105.084 7.26944 105.707 6.86677C106.33 6.46409 107.018 6.17797 107.77 6.00842C108.522 5.81768 109.253 5.72231 109.962 5.72231C111.187 5.7647 112.175 5.91305 112.927 6.16738C113.679 6.40051 114.388 6.70781 115.055 7.0893L115.087 10.3637C114.335 9.96103 113.604 9.60074 112.895 9.28283C112.186 8.94374 111.38 8.77419 110.478 8.77419C109.64 8.77419 108.984 8.92254 108.511 9.21925C108.06 9.49477 107.835 9.88685 107.835 10.3955C107.835 10.8406 107.974 11.2009 108.254 11.4764C108.533 11.7519 108.898 11.9638 109.349 12.1122C109.801 12.2605 110.295 12.4089 110.832 12.5572C111.369 12.7056 111.928 12.8751 112.508 13.0659C113.088 13.2354 113.626 13.4898 114.12 13.8289C114.614 14.168 115.012 14.6236 115.312 15.1958C115.635 15.7469 115.796 16.4887 115.796 17.4212C115.774 18.6504 115.441 19.6465 114.797 20.4095C114.152 21.1512 113.303 21.6917 112.25 22.0308C111.219 22.3699 110.134 22.5394 108.995 22.5394Z" fill="white"/>
<path d="M124.583 22.5712C122.907 22.5712 121.629 22.1685 120.748 21.3632C119.867 20.5366 119.426 19.3498 119.426 17.8027V9.21925H116.912V6.04022H119.426V1.62135H123.649V6.04022H127.42V9.21925H123.649V17.1668C123.649 17.8238 123.778 18.3113 124.035 18.6292C124.293 18.9471 124.744 19.1061 125.389 19.1061C125.733 19.1061 126.087 19.0531 126.453 18.9471C126.84 18.8199 127.162 18.6716 127.42 18.502V21.999C126.99 22.2109 126.517 22.3593 126.002 22.444C125.507 22.5288 125.035 22.5712 124.583 22.5712Z" fill="white"/>
<path d="M136.136 22.5394C135.234 22.5394 134.374 22.4546 133.558 22.2851C132.741 22.1155 132.011 21.84 131.366 21.4585C130.721 21.0559 130.206 20.5154 129.819 19.8372C129.454 19.1378 129.271 18.2689 129.271 17.2304C129.271 16.1496 129.497 15.2382 129.948 14.4965C130.399 13.7335 131.055 13.1613 131.914 12.7798C132.795 12.3771 133.869 12.1758 135.137 12.1758C135.911 12.1758 136.631 12.2499 137.297 12.3983C137.963 12.5255 138.565 12.7056 139.102 12.9387C139.639 13.1719 140.079 13.4262 140.423 13.7017L140.713 15.9588C140.262 15.6621 139.682 15.429 138.973 15.2594C138.285 15.0687 137.533 14.9733 136.717 14.9733C135.578 14.9733 134.729 15.1535 134.17 15.5137C133.612 15.874 133.332 16.4357 133.332 17.1986C133.332 17.7285 133.483 18.1735 133.783 18.5338C134.084 18.8729 134.471 19.1378 134.944 19.3286C135.417 19.4981 135.911 19.5829 136.426 19.5829C137.608 19.5829 138.457 19.5087 138.973 19.3604C139.51 19.1908 139.779 18.8411 139.779 18.3113V11.985C139.779 10.9465 139.446 10.1942 138.779 9.7279C138.113 9.24045 137.179 8.99672 135.975 8.99672C135.051 8.99672 134.106 9.15567 133.139 9.47357C132.172 9.77029 131.388 10.1624 130.786 10.6498V6.99393C131.366 6.63363 132.236 6.31573 133.397 6.04022C134.557 5.7647 135.803 5.62694 137.136 5.62694C137.694 5.62694 138.285 5.67992 138.908 5.78589C139.531 5.89186 140.122 6.06141 140.681 6.29454C141.261 6.52767 141.788 6.85617 142.26 7.28004C142.733 7.68272 143.109 8.20196 143.389 8.83777C143.668 9.45238 143.808 10.2048 143.808 11.0949V18.6928C143.808 19.6889 143.485 20.473 142.841 21.0453C142.196 21.5963 141.304 21.9778 140.165 22.1897C139.027 22.4229 137.684 22.5394 136.136 22.5394Z" fill="white"/>
<path d="M153.426 22.5712C151.75 22.5712 150.471 22.1685 149.59 21.3632C148.709 20.5366 148.269 19.3498 148.269 17.8027V9.21925H145.755V6.04022H148.269V1.62135H152.491V6.04022H156.262V9.21925H152.491V17.1668C152.491 17.8238 152.62 18.3113 152.878 18.6292C153.136 18.9471 153.587 19.1061 154.232 19.1061C154.575 19.1061 154.93 19.0531 155.295 18.9471C155.682 18.8199 156.004 18.6716 156.262 18.502V21.999C155.832 22.2109 155.36 22.3593 154.844 22.444C154.35 22.5288 153.877 22.5712 153.426 22.5712Z" fill="white"/>
<path d="M166.333 22.5394C164.828 22.5394 163.518 22.3063 162.4 21.84C161.304 21.3526 160.445 20.632 159.822 19.6783C159.22 18.7246 158.919 17.5059 158.919 16.0224V6.04022H163.013V15.6091C163.013 16.796 163.281 17.6755 163.819 18.2477C164.356 18.8199 165.194 19.1061 166.333 19.1061C167.514 19.1061 168.363 18.8199 168.879 18.2477C169.416 17.6755 169.685 16.796 169.685 15.6091V6.04022H173.553V16.0224C173.553 18.2265 172.908 19.869 171.619 20.9499C170.351 22.0096 168.589 22.5394 166.333 22.5394Z" fill="white"/>
<path d="M181.699 22.5394C180.539 22.5394 179.55 22.4123 178.734 22.1579C177.917 21.9248 177.133 21.6387 176.381 21.2996V17.6755C176.875 17.9934 177.391 18.3007 177.928 18.5974C178.487 18.8729 179.078 19.0955 179.701 19.265C180.345 19.4346 181.033 19.5193 181.764 19.5193C182.623 19.5193 183.257 19.3604 183.665 19.0425C184.095 18.7034 184.31 18.3007 184.31 17.8344C184.31 17.3894 184.149 17.0503 183.826 16.8172C183.504 16.5628 183.085 16.3509 182.569 16.1813C182.054 16.0118 181.506 15.8422 180.926 15.6727C180.388 15.5455 179.84 15.376 179.282 15.1641C178.745 14.9521 178.25 14.666 177.799 14.3057C177.348 13.9454 176.983 13.4898 176.703 12.9387C176.445 12.3665 176.316 11.6777 176.316 10.8724C176.316 9.91864 176.51 9.11328 176.897 8.45628C177.283 7.79928 177.788 7.26944 178.411 6.86677C179.035 6.46409 179.722 6.17797 180.474 6.00842C181.226 5.81768 181.957 5.72231 182.666 5.72231C183.891 5.7647 184.879 5.91305 185.631 6.16738C186.383 6.40051 187.093 6.70781 187.759 7.0893L187.791 10.3637C187.039 9.96103 186.308 9.60074 185.599 9.28283C184.89 8.94374 184.084 8.77419 183.182 8.77419C182.344 8.77419 181.688 8.92254 181.216 9.21925C180.764 9.49477 180.539 9.88685 180.539 10.3955C180.539 10.8406 180.678 11.2009 180.958 11.4764C181.237 11.7519 181.602 11.9638 182.054 12.1122C182.505 12.2605 182.999 12.4089 183.536 12.5572C184.074 12.7056 184.632 12.8751 185.212 13.0659C185.793 13.2354 186.33 13.4898 186.824 13.8289C187.318 14.168 187.716 14.6236 188.017 15.1958C188.339 15.7469 188.5 16.4887 188.5 17.4212C188.479 18.6504 188.145 19.6465 187.501 20.4095C186.856 21.1512 186.007 21.6917 184.955 22.0308C183.923 22.3699 182.838 22.5394 181.699 22.5394Z" fill="white"/>
<path d="M37.003 22.0625L31.588 6.04017H35.9716L39.8394 19.3603L38.5824 19.4875L42.289 6.04017H45.4477L49.0899 19.106H48.0907L51.8941 6.04017H56.1487L50.7338 22.0625H46.9949L43.4494 10.618L44.1585 10.8087L40.7741 22.0625H37.003Z" fill="white"/>
<path d="M64.3384 22.5394C61.6739 22.5394 59.6755 21.8082 58.3432 20.3458C57.011 18.8835 56.3449 16.7747 56.3449 14.0196C56.3449 11.0736 57.0217 8.9331 58.3755 7.5979C59.7507 6.2627 61.7276 5.59511 64.3061 5.59511C66.1111 5.59511 67.6153 5.91301 68.8186 6.54882C70.0219 7.16343 70.9137 8.09595 71.4938 9.34637C72.0955 10.5968 72.3963 12.1545 72.3963 14.0196C72.3963 16.7747 71.698 18.8835 70.3012 20.3458C68.926 21.8082 66.9384 22.5394 64.3384 22.5394ZM64.3384 19.2332C65.2838 19.2332 66.0466 19.0212 66.6268 18.5974C67.2285 18.1735 67.669 17.5801 67.9483 16.8171C68.2277 16.0329 68.3673 15.1004 68.3673 14.0196C68.3673 12.8115 68.2169 11.826 67.9161 11.0631C67.6368 10.3001 67.1963 9.73845 66.5946 9.37816C66.0144 9.01787 65.2623 8.83772 64.3384 8.83772C63.3929 8.83772 62.6301 9.02847 62.0499 9.40995C61.4697 9.79144 61.04 10.3637 60.7606 11.1266C60.5028 11.8896 60.3738 12.8539 60.3738 14.0196C60.3738 15.715 60.6854 17.0079 61.3086 17.898C61.9317 18.7881 62.9416 19.2332 64.3384 19.2332Z" fill="white"/>
<path d="M74.9099 22.0625V7.5979C75.2107 7.40716 75.7372 7.15283 76.4893 6.83493C77.2628 6.51703 78.1546 6.24151 79.1645 6.00838C80.1744 5.75406 81.1951 5.6269 82.2265 5.6269C83.0001 5.6269 83.6125 5.69048 84.0637 5.81764C84.5365 5.92361 84.9018 6.06136 85.1596 6.23091V9.28279C84.7299 9.21921 84.2356 9.16622 83.677 9.12384C83.1398 9.08145 82.5811 9.07085 82.0009 9.09205C81.4422 9.09205 80.8943 9.11324 80.3571 9.15563C79.8414 9.19802 79.3901 9.251 79.0033 9.31458V22.0625H74.9099Z" fill="white"/>
<path d="M90.2873 13.0023L96.5725 6.04017H101.568L92.3823 15.1322L90.2873 13.0023ZM91.1575 22.0625H87.0963V0H91.1897L91.1575 22.0625ZM93.2204 11.4445L102.181 22.0625H96.9915L90.3195 14.1467L93.2204 11.4445Z" fill="white"/>
<path fill-rule="evenodd" clip-rule="evenodd" d="M3.43193 11.7836C3.17167 13.9261 3.67605 16.0912 4.85839 17.9067C6.04073 19.7223 7.82721 21.075 9.91086 21.7324C11.9945 22.3898 14.2452 22.3108 16.2763 21.5091C18.3074 20.7074 19.9919 19.233 21.0406 17.3392C22.0892 15.4454 22.4364 13.2505 22.0226 11.1316C21.6087 9.01271 20.4596 7.10215 18.7727 5.72821C17.4576 4.65707 15.8796 3.96422 14.2113 3.71085L14.2113 5.41946C14.2113 6.19985 13.57 6.83248 12.7788 6.83248C11.9877 6.83248 11.3463 6.19985 11.3463 5.41946L11.3463 2.39158C11.3463 1.50658 12.0785 0.76152 13.0105 0.778858C15.7816 0.83041 18.4562 1.80552 20.5969 3.54907C22.7972 5.34117 24.2961 7.8332 24.8359 10.597C25.3757 13.3607 24.9228 16.2237 23.555 18.6938C22.1872 21.164 19.99 23.0872 17.3408 24.1329C14.6915 25.1786 11.7558 25.2815 9.03801 24.424C6.3202 23.5666 3.99 21.8022 2.44782 19.4341C0.905637 17.066 0.247757 14.242 0.587222 11.4474C0.926687 8.65278 2.2423 6.06204 4.30801 4.12033C4.88075 3.58197 5.78751 3.60351 6.33332 4.16846C6.87912 4.7334 6.85727 5.62781 6.28453 6.16618C4.70082 7.65483 3.69218 9.64106 3.43193 11.7836Z" fill="white"/>
<path fill-rule="evenodd" clip-rule="evenodd" d="M7.67324 7.64995C8.23268 7.09814 9.1397 7.09814 9.69914 7.64995L14.2014 12.0909C14.7608 12.6427 14.7608 13.5373 14.2014 14.0892C13.6419 14.641 12.7349 14.641 12.1755 14.0892L7.67324 9.64826C7.1138 9.09644 7.1138 8.20177 7.67324 7.64995Z" fill="white"/>
</svg>
